<?xml version="1.0" encoding="utf-8"?>
<!-- Generator: Adobe Illustrator 14.0.0, SVG Export Plug-In . SVG Version: 6.00 Build 43363)  -->
<!DOCTYPE svg PUBLIC "-//W3C//DTD SVG 1.1//EN" "http://www.w3.org/Graphics/SVG/1.1/DTD/svg11.dtd">
<svg version="1.1"
	 id="Layer_1" image-rendering="auto" shape-rendering="auto" color-rendering="auto" text-rendering="auto" color-interpolation="auto"
	 xmlns="http://www.w3.org/2000/svg" xmlns:xlink="http://www.w3.org/1999/xlink" x="0px" y="0px" width="216px" height="144px"
	 viewBox="0 0 216 144" enable-background="new 0 0 216 144" xml:space="preserve">
<g>
	<g>
		<path d="M16.875,92.813V5.625h87.188v87.188H16.875z M24.188,85.5H96.75V12.938H24.188V85.5z M39.938,78.188
			c-1.781,0-3.281-0.352-4.5-1.055s-2.18-1.664-2.883-2.883s-1.055-2.719-1.055-4.5s0.352-3.281,1.055-4.5s1.664-2.18,2.883-2.883
			s2.719-1.055,4.5-1.055s3.281,0.352,4.5,1.055s2.18,1.664,2.883,2.883s1.055,2.719,1.055,4.5s-0.352,3.281-1.055,4.5
			s-1.664,2.18-2.883,2.883S41.719,78.188,39.938,78.188z M81,78.188c-1.781,0-3.281-0.352-4.5-1.055s-2.18-1.664-2.883-2.883
			s-1.055-2.719-1.055-4.5s0.352-3.281,1.055-4.5s1.664-2.18,2.883-2.883s2.719-1.055,4.5-1.055s3.281,0.352,4.5,1.055
			s2.18,1.664,2.883,2.883s1.055,2.719,1.055,4.5s-0.352,3.281-1.055,4.5s-1.664,2.18-2.883,2.883S82.781,78.188,81,78.188z
			 M60.469,57.656c-1.781,0-3.281-0.352-4.5-1.055s-2.18-1.664-2.883-2.883s-1.055-2.719-1.055-4.5s0.352-3.281,1.055-4.5
			s1.664-2.18,2.883-2.883s2.719-1.055,4.5-1.055s3.281,0.352,4.5,1.055s2.18,1.664,2.883,2.883s1.055,2.719,1.055,4.5
			s-0.352,3.281-1.055,4.5s-1.664,2.18-2.883,2.883S62.25,57.656,60.469,57.656z M39.938,37.125c-1.781,0-3.281-0.352-4.5-1.055
			s-2.18-1.664-2.883-2.883s-1.055-2.719-1.055-4.5s0.352-3.281,1.055-4.5s1.664-2.18,2.883-2.883s2.719-1.055,4.5-1.055
			s3.281,0.352,4.5,1.055s2.18,1.664,2.883,2.883s1.055,2.719,1.055,4.5s-0.352,3.281-1.055,4.5s-1.664,2.18-2.883,2.883
			S41.719,37.125,39.938,37.125z M81,37.125c-1.781,0-3.281-0.352-4.5-1.055s-2.18-1.664-2.883-2.883s-1.055-2.719-1.055-4.5
			s0.352-3.281,1.055-4.5s1.664-2.18,2.883-2.883s2.719-1.055,4.5-1.055s3.281,0.352,4.5,1.055s2.18,1.664,2.883,2.883
			s1.055,2.719,1.055,4.5s-0.352,3.281-1.055,4.5s-1.664,2.18-2.883,2.883S82.781,37.125,81,37.125z"/>
	</g>
</g>
</svg>
